<mxfile host="app.diagrams.net" agent="Mozilla/5.0 (Windows NT 10.0; Win64; x64) AppleWebKit/537.36 (KHTML, like Gecko) Chrome/128.0.0.0 YaBrowser/24.10.0.0 Safari/537.36" version="25.0.3">
  <diagram name="Страница — 1" id="2yW92XXp-DK8q4dagvaF">
    <mxGraphModel dx="2258" dy="821" grid="1" gridSize="10" guides="1" tooltips="1" connect="1" arrows="1" fold="1" page="1" pageScale="1" pageWidth="827" pageHeight="1169" math="0" shadow="0">
      <root>
        <mxCell id="0" />
        <mxCell id="1" parent="0" />
        <mxCell id="yY1t0KAiAA_w4ukiuCpp-1" style="edgeStyle=orthogonalEdgeStyle;rounded=0;orthogonalLoop=1;jettySize=auto;html=1;exitX=0.5;exitY=1;exitDx=0;exitDy=0;entryX=0.5;entryY=0;entryDx=0;entryDy=0;" edge="1" parent="1" source="yY1t0KAiAA_w4ukiuCpp-3" target="yY1t0KAiAA_w4ukiuCpp-5">
          <mxGeometry relative="1" as="geometry" />
        </mxCell>
        <mxCell id="yY1t0KAiAA_w4ukiuCpp-2" value="&lt;span style=&quot;line-height: 107%; font-family: &amp;quot;Times New Roman&amp;quot;, serif;&quot; lang=&quot;EN-US&quot;&gt;&lt;font&gt;Читатель приходит в&lt;br/&gt;библиотеку&lt;/font&gt;&lt;/span&gt;" style="edgeLabel;html=1;align=center;verticalAlign=middle;resizable=0;points=[];" vertex="1" connectable="0" parent="yY1t0KAiAA_w4ukiuCpp-1">
          <mxGeometry x="-0.1259" relative="1" as="geometry">
            <mxPoint as="offset" />
          </mxGeometry>
        </mxCell>
        <mxCell id="yY1t0KAiAA_w4ukiuCpp-3" value="" style="shape=ellipse;html=1;fillColor=strokeColor;fontSize=18;fontColor=#ffffff;" vertex="1" parent="1">
          <mxGeometry x="-440" y="100" width="40" height="40" as="geometry" />
        </mxCell>
        <mxCell id="yY1t0KAiAA_w4ukiuCpp-4" style="edgeStyle=orthogonalEdgeStyle;rounded=0;orthogonalLoop=1;jettySize=auto;html=1;" edge="1" parent="1" source="yY1t0KAiAA_w4ukiuCpp-5" target="yY1t0KAiAA_w4ukiuCpp-11">
          <mxGeometry relative="1" as="geometry" />
        </mxCell>
        <mxCell id="yY1t0KAiAA_w4ukiuCpp-5" value="Читатель пришел" style="shape=rect;rounded=1;html=1;whiteSpace=wrap;align=center;" vertex="1" parent="1">
          <mxGeometry x="-470" y="200" width="100" height="40" as="geometry" />
        </mxCell>
        <mxCell id="yY1t0KAiAA_w4ukiuCpp-6" value="" style="shape=mxgraph.sysml.actFinal;html=1;verticalLabelPosition=bottom;labelBackgroundColor=#ffffff;verticalAlign=top;" vertex="1" parent="1">
          <mxGeometry x="-440" y="930" width="40" height="40" as="geometry" />
        </mxCell>
        <mxCell id="yY1t0KAiAA_w4ukiuCpp-7" style="edgeStyle=orthogonalEdgeStyle;rounded=0;orthogonalLoop=1;jettySize=auto;html=1;entryX=0.5;entryY=0;entryDx=0;entryDy=0;" edge="1" parent="1" source="yY1t0KAiAA_w4ukiuCpp-11" target="yY1t0KAiAA_w4ukiuCpp-16">
          <mxGeometry relative="1" as="geometry">
            <Array as="points">
              <mxPoint x="-190" y="365" />
              <mxPoint x="-190" y="440" />
            </Array>
          </mxGeometry>
        </mxCell>
        <mxCell id="yY1t0KAiAA_w4ukiuCpp-8" value="&lt;font face=&quot;Times New Roman, serif&quot;&gt;Билет есть&lt;/font&gt;" style="edgeLabel;html=1;align=center;verticalAlign=middle;resizable=0;points=[];" vertex="1" connectable="0" parent="yY1t0KAiAA_w4ukiuCpp-7">
          <mxGeometry x="-0.4154" y="-1" relative="1" as="geometry">
            <mxPoint as="offset" />
          </mxGeometry>
        </mxCell>
        <mxCell id="yY1t0KAiAA_w4ukiuCpp-9" style="edgeStyle=orthogonalEdgeStyle;rounded=0;orthogonalLoop=1;jettySize=auto;html=1;entryX=0.5;entryY=0;entryDx=0;entryDy=0;" edge="1" parent="1" source="yY1t0KAiAA_w4ukiuCpp-11" target="yY1t0KAiAA_w4ukiuCpp-14">
          <mxGeometry relative="1" as="geometry" />
        </mxCell>
        <mxCell id="yY1t0KAiAA_w4ukiuCpp-10" value="Билета нету" style="edgeLabel;html=1;align=center;verticalAlign=middle;resizable=0;points=[];" vertex="1" connectable="0" parent="yY1t0KAiAA_w4ukiuCpp-9">
          <mxGeometry x="-0.1667" y="1" relative="1" as="geometry">
            <mxPoint as="offset" />
          </mxGeometry>
        </mxCell>
        <mxCell id="yY1t0KAiAA_w4ukiuCpp-11" value="&lt;span style=&quot;line-height: 107%; font-family: &amp;quot;Times New Roman&amp;quot;, serif;&quot; lang=&quot;EN-US&quot;&gt;&lt;font&gt;Проверяется наличие&lt;br/&gt;читательского билета&lt;/font&gt;&lt;/span&gt;" style="rhombus;whiteSpace=wrap;html=1;" vertex="1" parent="1">
          <mxGeometry x="-475" y="310" width="110" height="110" as="geometry" />
        </mxCell>
        <mxCell id="yY1t0KAiAA_w4ukiuCpp-12" style="edgeStyle=orthogonalEdgeStyle;rounded=0;orthogonalLoop=1;jettySize=auto;html=1;entryX=0;entryY=0.5;entryDx=0;entryDy=0;" edge="1" parent="1" source="yY1t0KAiAA_w4ukiuCpp-14" target="yY1t0KAiAA_w4ukiuCpp-5">
          <mxGeometry relative="1" as="geometry">
            <mxPoint x="-680" y="330" as="targetPoint" />
            <Array as="points">
              <mxPoint x="-740" y="470" />
              <mxPoint x="-740" y="220" />
            </Array>
          </mxGeometry>
        </mxCell>
        <mxCell id="yY1t0KAiAA_w4ukiuCpp-13" value="&lt;span style=&quot;text-wrap-mode: wrap; background-color: rgb(251, 251, 251);&quot;&gt;Читатель оформляет билет&amp;nbsp;&lt;/span&gt;" style="edgeLabel;html=1;align=center;verticalAlign=middle;resizable=0;points=[];" vertex="1" connectable="0" parent="yY1t0KAiAA_w4ukiuCpp-12">
          <mxGeometry x="-0.3903" y="-1" relative="1" as="geometry">
            <mxPoint as="offset" />
          </mxGeometry>
        </mxCell>
        <mxCell id="yY1t0KAiAA_w4ukiuCpp-14" value="&lt;span style=&quot;font-size: 11px;&quot;&gt;У читателя нету билета&lt;/span&gt;" style="shape=rect;rounded=1;html=1;whiteSpace=wrap;align=center;" vertex="1" parent="1">
          <mxGeometry x="-680" y="450" width="100" height="40" as="geometry" />
        </mxCell>
        <mxCell id="yY1t0KAiAA_w4ukiuCpp-15" style="edgeStyle=orthogonalEdgeStyle;rounded=0;orthogonalLoop=1;jettySize=auto;html=1;" edge="1" parent="1" source="yY1t0KAiAA_w4ukiuCpp-16" target="yY1t0KAiAA_w4ukiuCpp-21">
          <mxGeometry relative="1" as="geometry" />
        </mxCell>
        <mxCell id="yY1t0KAiAA_w4ukiuCpp-16" value="Выбор кину из каталога" style="shape=rect;rounded=1;html=1;whiteSpace=wrap;align=center;" vertex="1" parent="1">
          <mxGeometry x="-240" y="440" width="100" height="40" as="geometry" />
        </mxCell>
        <mxCell id="yY1t0KAiAA_w4ukiuCpp-17" style="edgeStyle=orthogonalEdgeStyle;rounded=0;orthogonalLoop=1;jettySize=auto;html=1;entryX=0.5;entryY=0;entryDx=0;entryDy=0;" edge="1" parent="1" source="yY1t0KAiAA_w4ukiuCpp-21" target="yY1t0KAiAA_w4ukiuCpp-24">
          <mxGeometry relative="1" as="geometry" />
        </mxCell>
        <mxCell id="yY1t0KAiAA_w4ukiuCpp-18" value="Книга доступно" style="edgeLabel;html=1;align=center;verticalAlign=middle;resizable=0;points=[];" vertex="1" connectable="0" parent="yY1t0KAiAA_w4ukiuCpp-17">
          <mxGeometry x="-0.047" relative="1" as="geometry">
            <mxPoint as="offset" />
          </mxGeometry>
        </mxCell>
        <mxCell id="yY1t0KAiAA_w4ukiuCpp-19" style="edgeStyle=orthogonalEdgeStyle;rounded=0;orthogonalLoop=1;jettySize=auto;html=1;entryX=0.5;entryY=0;entryDx=0;entryDy=0;" edge="1" parent="1" source="yY1t0KAiAA_w4ukiuCpp-21" target="yY1t0KAiAA_w4ukiuCpp-27">
          <mxGeometry relative="1" as="geometry" />
        </mxCell>
        <mxCell id="yY1t0KAiAA_w4ukiuCpp-20" value="Книга не доступно" style="edgeLabel;html=1;align=center;verticalAlign=middle;resizable=0;points=[];" vertex="1" connectable="0" parent="yY1t0KAiAA_w4ukiuCpp-19">
          <mxGeometry x="-0.4152" relative="1" as="geometry">
            <mxPoint as="offset" />
          </mxGeometry>
        </mxCell>
        <mxCell id="yY1t0KAiAA_w4ukiuCpp-21" value="&lt;div&gt;&lt;span style=&quot;line-height: 107%; font-family: &amp;quot;Times New Roman&amp;quot;, serif;&quot; lang=&quot;EN-US&quot;&gt;&lt;font style=&quot;font-size: 11px;&quot;&gt;&lt;br&gt;&lt;/font&gt;&lt;/span&gt;&lt;/div&gt;&lt;span style=&quot;line-height: 107%; font-family: &amp;quot;Times New Roman&amp;quot;, serif;&quot; lang=&quot;EN-US&quot;&gt;&lt;font style=&quot;font-size: 11px;&quot;&gt;Проверяется&lt;br&gt;доступность книги&lt;/font&gt;&lt;/span&gt;" style="rhombus;whiteSpace=wrap;html=1;" vertex="1" parent="1">
          <mxGeometry x="-235" y="600" width="90" height="90" as="geometry" />
        </mxCell>
        <mxCell id="yY1t0KAiAA_w4ukiuCpp-22" style="edgeStyle=orthogonalEdgeStyle;rounded=0;orthogonalLoop=1;jettySize=auto;html=1;" edge="1" parent="1" source="yY1t0KAiAA_w4ukiuCpp-24" target="yY1t0KAiAA_w4ukiuCpp-28">
          <mxGeometry relative="1" as="geometry" />
        </mxCell>
        <mxCell id="yY1t0KAiAA_w4ukiuCpp-23" value="Книга передается читателю" style="edgeLabel;html=1;align=center;verticalAlign=middle;resizable=0;points=[];" vertex="1" connectable="0" parent="yY1t0KAiAA_w4ukiuCpp-22">
          <mxGeometry x="-0.1257" y="2" relative="1" as="geometry">
            <mxPoint as="offset" />
          </mxGeometry>
        </mxCell>
        <mxCell id="yY1t0KAiAA_w4ukiuCpp-24" value="&lt;span style=&quot;line-height: 107%; font-family: &amp;quot;Times New Roman&amp;quot;, serif;&quot; lang=&quot;EN-US&quot;&gt;&lt;font style=&quot;font-size: 15px;&quot;&gt;регистрирует выдачу книги&lt;/font&gt;&lt;/span&gt;" style="shape=rect;rounded=1;html=1;whiteSpace=wrap;align=center;" vertex="1" parent="1">
          <mxGeometry x="-470" y="690" width="100" height="40" as="geometry" />
        </mxCell>
        <mxCell id="yY1t0KAiAA_w4ukiuCpp-25" style="edgeStyle=orthogonalEdgeStyle;rounded=0;orthogonalLoop=1;jettySize=auto;html=1;entryX=1;entryY=0.25;entryDx=0;entryDy=0;" edge="1" parent="1" source="yY1t0KAiAA_w4ukiuCpp-27" target="yY1t0KAiAA_w4ukiuCpp-16">
          <mxGeometry relative="1" as="geometry">
            <Array as="points">
              <mxPoint x="110" y="710" />
              <mxPoint x="110" y="450" />
            </Array>
          </mxGeometry>
        </mxCell>
        <mxCell id="yY1t0KAiAA_w4ukiuCpp-26" value="&lt;span style=&quot;line-height: 107%; font-family: &amp;quot;Times New Roman&amp;quot;, serif;&quot;&gt;&lt;font&gt;читателю предлагается выбрать другую книгу&lt;/font&gt;&lt;/span&gt;" style="edgeLabel;html=1;align=center;verticalAlign=middle;resizable=0;points=[];" vertex="1" connectable="0" parent="yY1t0KAiAA_w4ukiuCpp-25">
          <mxGeometry x="-0.3113" relative="1" as="geometry">
            <mxPoint as="offset" />
          </mxGeometry>
        </mxCell>
        <mxCell id="yY1t0KAiAA_w4ukiuCpp-27" value="&lt;font face=&quot;Times New Roman, serif&quot;&gt;&lt;span style=&quot;font-size: 15px;&quot;&gt;Книга не доступно&lt;/span&gt;&lt;/font&gt;" style="shape=rect;rounded=1;html=1;whiteSpace=wrap;align=center;" vertex="1" parent="1">
          <mxGeometry x="-30" y="690" width="100" height="40" as="geometry" />
        </mxCell>
        <mxCell id="yY1t0KAiAA_w4ukiuCpp-28" value="&lt;span style=&quot;line-height: 107%; font-family: &amp;quot;Times New Roman&amp;quot;, serif;&quot; lang=&quot;EN-US&quot;&gt;&lt;font style=&quot;font-size: 14px;&quot;&gt;Читатель получает&lt;br/&gt;книгу&lt;/font&gt;&lt;/span&gt;" style="shape=rect;rounded=1;html=1;whiteSpace=wrap;align=center;" vertex="1" parent="1">
          <mxGeometry x="-470" y="800" width="100" height="40" as="geometry" />
        </mxCell>
        <mxCell id="yY1t0KAiAA_w4ukiuCpp-29" style="edgeStyle=orthogonalEdgeStyle;rounded=0;orthogonalLoop=1;jettySize=auto;html=1;entryX=0.5;entryY=0;entryDx=0;entryDy=0;entryPerimeter=0;" edge="1" parent="1" source="yY1t0KAiAA_w4ukiuCpp-28" target="yY1t0KAiAA_w4ukiuCpp-6">
          <mxGeometry relative="1" as="geometry" />
        </mxCell>
      </root>
    </mxGraphModel>
  </diagram>
</mxfile>
